{
  "asset": {
    "version": "2.0",
    "generator": "MeowyRender regression fixture"
  },
  "scene": 0,
  "scenes": [
    {
      "nodes": [
        0
      ]
    }
  ],
  "nodes": [
    {
      "name": "Root",
      "translation": [
        5,
        0,
        0
      ],
      "children": [
        1,
        2
      ]
    },
    {
      "name": "Joint"
    },
    {
      "name": "Triangle",
      "mesh": 0,
      "skin": 0
    }
  ],
  "skins": [
    {
      "joints": [
        1
      ],
      "inverseBindMatrices": 6
    }
  ],
  "meshes": [
    {
      "primitives": [
        {
          "attributes": {
            "POSITION": 0,
            "JOINTS_0": 1,
            "WEIGHTS_0": 2
          }
        }
      ]
    }
  ],
  "buffers": [
    {
      "uri": "data:application/octet-stream;base64,",
      "byteLength": 276
    }
  ],
  "bufferViews": [
    {
      "buffer": 0,
      "byteOffset": 0,
      "byteLength": 36
    },
    {
      "buffer": 0,
      "byteOffset": 36,
      "byteLength": 24
    },
    {
      "buffer": 0,
      "byteOffset": 60,
      "byteLength": 48
    },
    {
      "buffer": 0,
      "byteOffset": 108,
      "byteLength": 8
    },
    {
      "buffer": 0,
      "byteOffset": 116,
      "byteLength": 24
    },
    {
      "buffer": 0,
      "byteOffset": 140,
      "byteLength": 72
    },
    {
      "buffer": 0,
      "byteOffset": 212,
      "byteLength": 64
    }
  ],
  "accessors": [
    {
      "bufferView": 0,
      "componentType": 5126,
      "count": 3,
      "type": "VEC3",
      "min": [
        10,
        10,
        0
      ],
      "max": [
        50,
        50,
        0
      ]
    },
    {
      "bufferView": 1,
      "componentType": 5123,
      "count": 3,
      "type": "VEC4"
    },
    {
      "bufferView": 2,
      "componentType": 5126,
      "count": 3,
      "type": "VEC4"
    },
    {
      "bufferView": 3,
      "componentType": 5126,
      "count": 2,
      "type": "SCALAR",
      "min": [
        0
      ],
      "max": [
        1
      ]
    },
    {
      "bufferView": 4,
      "componentType": 5126,
      "count": 2,
      "type": "VEC3"
    },
    {
      "bufferView": 5,
      "componentType": 5126,
      "count": 6,
      "type": "VEC3"
    },
    {
      "bufferView": 6,
      "componentType": 5126,
      "count": 1,
      "type": "MAT4"
    }
  ],
  "animations": [
    {
      "name": "LINEAR",
      "samplers": [
        {
          "input": 3,
          "output": 4,
          "interpolation": "LINEAR"
        }
      ],
      "channels": [
        {
          "sampler": 0,
          "target": {
            "node": 1,
            "path": "translation"
          }
        }
      ]
    },
    {
      "name": "STEP",
      "samplers": [
        {
          "input": 3,
          "output": 4,
          "interpolation": "STEP"
        }
      ],
      "channels": [
        {
          "sampler": 0,
          "target": {
            "node": 1,
            "path": "translation"
          }
        }
      ]
    },
    {
      "name": "CUBICSPLINE",
      "samplers": [
        {
          "input": 3,
          "output": 5,
          "interpolation": "CUBICSPLINE"
        }
      ],
      "channels": [
        {
          "sampler": 0,
          "target": {
            "node": 1,
            "path": "translation"
          }
        }
      ]
    }
  ]
}
